{
  "accessors": [
    {
      "bufferView": 2,
      "componentType": 5126,
      "count": 1099,
      "max": [
        2.8927204608917236,
        0.8131716251373291,
        0.8516066074371338
      ],
      "min": [
        -0.20053556561470032,
        -0.9631716012954712,
        -0.8516066074371338
      ],
      "type": "VEC3"
    },
    {
      "bufferView": 2,
      "byteOffset": 13188,
      "componentType": 5126,
      "count": 1099,
      "max": [
        0.9999922513961792,
        1.0,
        1.0
      ],
      "min": [
        -1.0,
        -1.0,
        -1.0
      ],
      "type": "VEC3"
    },
    {
      "bufferView": 1,
      "componentType": 5126,
      "count": 1099,
      "max": [
        0.9826012849807739,
        0.9881231784820557
      ],
      "min": [
        0.011707748286426067,
        0.011707756668329239
      ],
      "type": "VEC2"
    },
    {
      "bufferView": 0,
      "componentType": 5125,
      "count": 3705,
      "type": "SCALAR"
    },
    {
      "bufferView": 2,
      "byteOffset": 26376,
      "componentType": 5126,
      "count": 492,
      "max": [
        2.8927204608917236,
        0.5786979794502258,
        0.8516066074371338
      ],
      "min": [
        0.18360386788845062,
        -0.9691177606582642,
        -0.8516066074371338
      ],
      "type": "VEC3"
    },
    {
      "bufferView": 2,
      "byteOffset": 32280,
      "componentType": 5126,
      "count": 492,
      "max": [
        0.9940590262413025,
        1.0,
        0.9998990893363953
      ],
      "min": [
        -0.9158220887184143,
        -1.0,
        -0.9998993277549744
      ],
      "type": "VEC3"
    },
    {
      "bufferView": 1,
      "byteOffset": 8792,
      "componentType": 5126,
      "count": 492,
      "max": [
        0.9878845810890198,
        0.9882922768592834
      ],
      "min": [
        0.011707782745361328,
        0.011707759462296963
      ],
      "type": "VEC2"
    },
    {
      "bufferView": 0,
      "byteOffset": 14820,
      "componentType": 5125,
      "count": 1407,
      "type": "SCALAR"
    },
    {
      "bufferView": 2,
      "byteOffset": 38184,
      "componentType": 5126,
      "count": 104,
      "max": [
        0.09910184144973755,
        0.5214524269104004,
        0.41284382343292236
      ],
      "min": [
        -0.09910184144973755,
        -0.5214524269104004,
        -0.41284382343292236
      ],
      "type": "VEC3"
    },
    {
      "bufferView": 2,
      "byteOffset": 39432,
      "componentType": 5126,
      "count": 104,
      "max": [
        0.9981746077537537,
        0.9893270134925842,
        0.44829869270324707
      ],
      "min": [
        -0.9981746673583984,
        -0.989327073097229,
        -0.44829875230789185
      ],
      "type": "VEC3"
    },
    {
      "bufferView": 1,
      "byteOffset": 12728,
      "componentType": 5126,
      "count": 104,
      "max": [
        0.9283105731010437,
        0.9224181175231934
      ],
      "min": [
        0.13327613472938538,
        0.011707762256264687
      ],
      "type": "VEC2"
    },
    {
      "bufferView": 0,
      "byteOffset": 20448,
      "componentType": 5125,
      "count": 288,
      "type": "SCALAR"
    },
    {
      "bufferView": 2,
      "byteOffset": 40680,
      "componentType": 5126,
      "count": 312,
      "max": [
        0.09910186380147934,
        0.5214524269104004,
        0.6009637117385864
      ],
      "min": [
        -0.09910186380147934,
        -0.5214524269104004,
        -0.6009637117385864
      ],
      "type": "VEC3"
    },
    {
      "bufferView": 2,
      "byteOffset": 44424,
      "componentType": 5126,
      "count": 312,
      "max": [
        0.9981746077537537,
        0.9893270134925842,
        0.9876372814178467
      ],
      "min": [
        -0.9981746673583984,
        -0.989327073097229,
        -0.9876372814178467
      ],
      "type": "VEC3"
    },
    {
      "bufferView": 1,
      "byteOffset": 13560,
      "componentType": 5126,
      "count": 312,
      "max": [
        0.9281471371650696,
        0.9534998536109924
      ],
      "min": [
        0.16151215136051178,
        0.011958634480834007
      ],
      "type": "VEC2"
    },
    {
      "bufferView": 0,
      "byteOffset": 21600,
      "componentType": 5125,
      "count": 1188,
      "type": "SCALAR"
    },
    {
      "bufferView": 2,
      "byteOffset": 48168,
      "componentType": 5126,
      "count": 234,
      "max": [
        0.38456493616104126,
        0.056090496480464935,
        0.3118880093097687
      ],
      "min": [
        -0.20266300439834595,
        -0.12945842742919922,
        -0.32962924242019653
      ],
      "type": "VEC3"
    },
    {
      "bufferView": 2,
      "byteOffset": 50976,
      "componentType": 5126,
      "count": 234,
      "max": [
        0.9877666234970093,
        0.9981130957603455,
        0.5392110347747803
      ],
      "min": [
        -0.9877650737762451,
        -0.9987568259239197,
        -0.7977532148361206
      ],
      "type": "VEC3"
    },
    {
      "bufferView": 1,
      "byteOffset": 16056,
      "componentType": 5126,
      "count": 234,
      "max": [
        0.8320178985595703,
        0.8016456365585327
      ],
      "min": [
        0.011707755737006664,
        0.011707764118909836
      ],
      "type": "VEC2"
    },
    {
      "bufferView": 0,
      "byteOffset": 26352,
      "componentType": 5125,
      "count": 798,
      "type": "SCALAR"
    },
    {
      "bufferView": 2,
      "byteOffset": 53784,
      "componentType": 5126,
      "count": 314,
      "max": [
        0.38543957471847534,
        0.04682313650846481,
        0.39928433299064636
      ],
      "min": [
        -0.21350044012069702,
        -0.12021800130605698,
        -0.3992784321308136
      ],
      "type": "VEC3"
    },
    {
      "bufferView": 2,
      "byteOffset": 57552,
      "componentType": 5126,
      "count": 314,
      "max": [
        0.9819823503494263,
        0.9981130957603455,
        0.9858920574188232
      ],
      "min": [
        -0.9841033816337585,
        -0.9987568259239197,
        -0.98589688539505
      ],
      "type": "VEC3"
    },
    {
      "bufferView": 1,
      "byteOffset": 17928,
      "componentType": 5126,
      "count": 314,
      "max": [
        0.8379520773887634,
        0.8881986737251282
      ],
      "min": [
        0.10588622093200684,
        0.05161098390817642
      ],
      "type": "VEC2"
    },
    {
      "bufferView": 0,
      "byteOffset": 29544,
      "componentType": 5125,
      "count": 990,
      "type": "SCALAR"
    },
    {
      "bufferView": 2,
      "byteOffset": 61320,
      "componentType": 5126,
      "count": 514,
      "max": [
        0.24878156185150146,
        0.10422909259796143,
        0.24878159165382385
      ],
      "min": [
        -0.24878156185150146,
        -0.2701214849948883,
        -0.24878156185150146
      ],
      "type": "VEC3"
    },
    {
      "bufferView": 2,
      "byteOffset": 67488,
      "componentType": 5126,
      "count": 514,
      "max": [
        1.0,
        1.0,
        1.0
      ],
      "min": [
        -1.0,
        -1.0,
        -1.0
      ],
      "type": "VEC3"
    },
    {
      "bufferView": 1,
      "byteOffset": 20440,
      "componentType": 5126,
      "count": 514,
      "max": [
        0.8575150370597839,
        0.9581599831581116
      ],
      "min": [
        0.011707778088748455,
        0.20399069786071777
      ],
      "type": "VEC2"
    },
    {
      "bufferView": 0,
      "byteOffset": 33504,
      "componentType": 5125,
      "count": 1428,
      "type": "SCALAR"
    },
    {
      "bufferView": 2,
      "byteOffset": 73656,
      "componentType": 5126,
      "count": 871,
      "max": [
        1.07729971408844,
        0.0539192333817482,
        1.1127456426620483
      ],
      "min": [
        -1.07729971408844,
        -0.3106406629085541,
        -0.9393661022186279
      ],
      "type": "VEC3"
    },
    {
      "bufferView": 2,
      "byteOffset": 84108,
      "componentType": 5126,
      "count": 871,
      "max": [
        0.9971475601196289,
        0.9948339462280273,
        0.9907135367393494
      ],
      "min": [
        -0.9971475005149841,
        -1.0,
        -0.9928008317947388
      ],
      "type": "VEC3"
    },
    {
      "bufferView": 1,
      "byteOffset": 24552,
      "componentType": 5126,
      "count": 871,
      "max": [
        0.9422204494476318,
        0.7197602391242981
      ],
      "min": [
        0.20448438823223114,
        0.15469598770141602
      ],
      "type": "VEC2"
    },
    {
      "bufferView": 0,
      "byteOffset": 39216,
      "componentType": 5125,
      "count": 2988,
      "type": "SCALAR"
    },
    {
      "bufferView": 2,
      "byteOffset": 94560,
      "componentType": 5126,
      "count": 2840,
      "max": [
        1.1103934049606323,
        2.0166585445404053,
        0.12829527258872986
      ],
      "min": [
        -1.1111559867858887,
        -0.09851954877376556,
        -0.18742787837982178
      ],
      "type": "VEC3"
    },
    {
      "bufferView": 2,
      "byteOffset": 128640,
      "componentType": 5126,
      "count": 2840,
      "max": [
        1.0,
        1.0,
        1.0
      ],
      "min": [
        -1.0,
        -1.0,
        -1.0
      ],
      "type": "VEC3"
    },
    {
      "bufferView": 1,
      "byteOffset": 31520,
      "componentType": 5126,
      "count": 2840,
      "max": [
        0.9813286662101746,
        0.9816925525665283
      ],
      "min": [
        0.011707728728652,
        0.011707762256264687
      ],
      "type": "VEC2"
    },
    {
      "bufferView": 0,
      "byteOffset": 51168,
      "componentType": 5125,
      "count": 7920,
      "type": "SCALAR"
    },
    {
      "bufferView": 2,
      "byteOffset": 162720,
      "componentType": 5126,
      "count": 1149,
      "max": [
        0.1331004649400711,
        0.656443178653717,
        0.3437398672103882
      ],
      "min": [
        -0.13887973129749298,
        -0.1814451813697815,
        -0.34298521280288696
      ],
      "type": "VEC3"
    },
    {
      "bufferView": 2,
      "byteOffset": 176508,
      "componentType": 5126,
      "count": 1149,
      "max": [
        1.0,
        1.0,
        1.0
      ],
      "min": [
        -1.0,
        -1.0,
        -1.0
      ],
      "type": "VEC3"
    },
    {
      "bufferView": 1,
      "byteOffset": 54240,
      "componentType": 5126,
      "count": 1149,
      "max": [
        0.9791592359542847,
        0.9796249270439148
      ],
      "min": [
        0.011707763187587261,
        0.05314242094755173
      ],
      "type": "VEC2"
    },
    {
      "bufferView": 0,
      "byteOffset": 82848,
      "componentType": 5125,
      "count": 4356,
      "type": "SCALAR"
    },
    {
      "bufferView": 2,
      "byteOffset": 190296,
      "componentType": 5126,
      "count": 1149,
      "max": [
        0.1331004649400711,
        0.656443178653717,
        0.3437398672103882
      ],
      "min": [
        -0.13887973129749298,
        -0.1814451813697815,
        -0.34298521280288696
      ],
      "type": "VEC3"
    },
    {
      "bufferView": 2,
      "byteOffset": 204084,
      "componentType": 5126,
      "count": 1149,
      "max": [
        1.0,
        1.0,
        1.0
      ],
      "min": [
        -1.0,
        -1.0,
        -1.0
      ],
      "type": "VEC3"
    },
    {
      "bufferView": 1,
      "byteOffset": 63432,
      "componentType": 5126,
      "count": 1149,
      "max": [
        0.9803673624992371,
        0.9573135375976563
      ],
      "min": [
        0.040618084371089935,
        0.011707762256264687
      ],
      "type": "VEC2"
    },
    {
      "bufferView": 0,
      "byteOffset": 100272,
      "componentType": 5125,
      "count": 4356,
      "type": "SCALAR"
    }
  ],
  "asset": {
    "extras": {
      "author": "GeniusPilot2016 (https://sketchfab.com/GeniusPilot2016)",
      "license": "CC-BY-4.0 (http://creativecommons.org/licenses/by/4.0/)",
      "source": "https://sketchfab.com/3d-models/gaming-chair-8f134d0419ec4244aec51cb6b4a027ae",
      "title": "Gaming Chair"
    },
    "generator": "Sketchfab-15.30.0",
    "version": "2.0"
  },
  "bufferViews": [
    {
      "buffer": 0,
      "byteLength": 117696,
      "name": "floatBufferViews",
      "target": 34963
    },
    {
      "buffer": 0,
      "byteLength": 72624,
      "byteOffset": 117696,
      "byteStride": 8,
      "name": "floatBufferViews",
      "target": 34962
    },
    {
      "buffer": 0,
      "byteLength": 217872,
      "byteOffset": 190320,
      "byteStride": 12,
      "name": "floatBufferViews",
      "target": 34962
    }
  ],
  "buffers": [
    {
      "byteLength": 408192,
      "uri": "scene.bin"
    }
  ],
  "materials": [
    {
      "doubleSided": true,
      "name": "body",
      "pbrMetallicRoughness": {
        "baseColorFactor": [
          0.0300583,
          0.0300583,
          0.0300583,
          1.0
        ],
        "metallicFactor": 0.0,
        "roughnessFactor": 0.5
      }
    },
    {
      "doubleSided": true,
      "name": "body_2",
      "pbrMetallicRoughness": {
        "baseColorFactor": [
          1.0,
          0.0,
          0.0,
          1.0
        ],
        "metallicFactor": 0.0,
        "roughnessFactor": 0.5
      }
    },
    {
      "doubleSided": true,
      "name": "body_3",
      "pbrMetallicRoughness": {
        "baseColorFactor": [
          0.0,
          0.0,
          0.0,
          1.0
        ],
        "metallicFactor": 0.0,
        "roughnessFactor": 0.5
      }
    }
  ],
  "meshes": [
    {
      "name": "Object_0",
      "primitives": [
        {
          "attributes": {
            "NORMAL": 1,
            "POSITION": 0,
            "TEXCOORD_0": 2
          },
          "indices": 3,
          "material": 0,
          "mode": 4
        }
      ]
    },
    {
      "name": "Object_1",
      "primitives": [
        {
          "attributes": {
            "NORMAL": 5,
            "POSITION": 4,
            "TEXCOORD_0": 6
          },
          "indices": 7,
          "material": 1,
          "mode": 4
        }
      ]
    },
    {
      "name": "Object_2",
      "primitives": [
        {
          "attributes": {
            "NORMAL": 9,
            "POSITION": 8,
            "TEXCOORD_0": 10
          },
          "indices": 11,
          "material": 0,
          "mode": 4
        }
      ]
    },
    {
      "name": "Object_3",
      "primitives": [
        {
          "attributes": {
            "NORMAL": 13,
            "POSITION": 12,
            "TEXCOORD_0": 14
          },
          "indices": 15,
          "material": 1,
          "mode": 4
        }
      ]
    },
    {
      "name": "Object_4",
      "primitives": [
        {
          "attributes": {
            "NORMAL": 17,
            "POSITION": 16,
            "TEXCOORD_0": 18
          },
          "indices": 19,
          "material": 0,
          "mode": 4
        }
      ]
    },
    {
      "name": "Object_5",
      "primitives": [
        {
          "attributes": {
            "NORMAL": 21,
            "POSITION": 20,
            "TEXCOORD_0": 22
          },
          "indices": 23,
          "material": 1,
          "mode": 4
        }
      ]
    },
    {
      "name": "Object_6",
      "primitives": [
        {
          "attributes": {
            "NORMAL": 25,
            "POSITION": 24,
            "TEXCOORD_0": 26
          },
          "indices": 27,
          "material": 2,
          "mode": 4
        }
      ]
    },
    {
      "name": "Object_7",
      "primitives": [
        {
          "attributes": {
            "NORMAL": 29,
            "POSITION": 28,
            "TEXCOORD_0": 30
          },
          "indices": 31,
          "material": 2,
          "mode": 4
        }
      ]
    },
    {
      "name": "Object_8",
      "primitives": [
        {
          "attributes": {
            "NORMAL": 33,
            "POSITION": 32,
            "TEXCOORD_0": 34
          },
          "indices": 35,
          "material": 2,
          "mode": 4
        }
      ]
    },
    {
      "name": "Object_9",
      "primitives": [
        {
          "attributes": {
            "NORMAL": 37,
            "POSITION": 36,
            "TEXCOORD_0": 38
          },
          "indices": 39,
          "material": 2,
          "mode": 4
        }
      ]
    },
    {
      "name": "Object_10",
      "primitives": [
        {
          "attributes": {
            "NORMAL": 41,
            "POSITION": 40,
            "TEXCOORD_0": 42
          },
          "indices": 43,
          "material": 2,
          "mode": 4
        }
      ]
    }
  ],
  "nodes": [
    {
      "children": [
        1
      ],
      "matrix": [
        1.0,
        0.0,
        0.0,
        0.0,
        0.0,
        2.220446049250313e-16,
        -1.0,
        0.0,
        0.0,
        1.0,
        2.220446049250313e-16,
        0.0,
        0.0,
        0.0,
        0.0,
        1.0
      ],
      "name": "Sketchfab_model"
    },
    {
      "children": [
        2
      ],
      "name": "root"
    },
    {
      "children": [
        3,
        6,
        9,
        12,
        14,
        16,
        18,
        20
      ],
      "matrix": [
        1.0,
        0.0,
        0.0,
        0.0,
        0.0,
        2.220446049250313e-16,
        1.0,
        0.0,
        0.0,
        -1.0,
        2.220446049250313e-16,
        0.0,
        0.0,
        0.0,
        0.0,
        1.0
      ],
      "name": "GLTF_SceneRootNode"
    },
    {
      "children": [
        4,
        5
      ],
      "matrix": [
        2.6012849539155494e-08,
        0.436423182487487,
        0.0,
        0.0,
        0.0,
        0.0,
        0.4364231824874878,
        0.0,
        0.436423182487487,
        -2.6012849539155494e-08,
        0.0,
        0.0,
        0.49869051575660706,
        0.5222413539886475,
        0.5205759406089783,
        1.0
      ],
      "name": "Cube_2"
    },
    {
      "mesh": 0,
      "name": "Object_4"
    },
    {
      "mesh": 1,
      "name": "Object_5"
    },
    {
      "children": [
        7,
        8
      ],
      "matrix": [
        4.8270726843645485e-11,
        0.03662012838357955,
        -0.4557876262796041,
        0.0,
        1.2491058428796508e-09,
        0.47304876185577904,
        0.038006969456922196,
        0.0,
        0.45714157819747925,
        -1.2032249094814116e-09,
        -4.825860802031134e-11,
        0.0,
        0.5054563879966736,
        0.871540367603302,
        0.6732578873634338,
        1.0
      ],
      "name": "Cube.001_3"
    },
    {
      "mesh": 2,
      "name": "Object_7"
    },
    {
      "mesh": 3,
      "name": "Object_8"
    },
    {
      "children": [
        10,
        11
      ],
      "matrix": [
        3.7185683850758636e-08,
        0.5895732160474892,
        0.06340825198182745,
        0.0,
        3.3400828212934257e-08,
        -0.06340825198182949,
        0.5895732160474892,
        0.0,
        0.5929731726646401,
        -3.3400828212934257e-08,
        -3.7185683850758636e-08,
        0.0,
        0.49824196100234985,
        1.502948522567749,
        0.7402041554450989,
        1.0
      ],
      "name": "Cube.002_4"
    },
    {
      "mesh": 4,
      "name": "Object_10"
    },
    {
      "mesh": 5,
      "name": "Object_11"
    },
    {
      "children": [
        13
      ],
      "matrix": [
        -0.4364231824874878,
        1.0736158203304435e-14,
        0.0,
        0.0,
        -1.0736158203304435e-14,
        -0.4364231824874878,
        0.0,
        0.0,
        0.0,
        0.0,
        0.4364231824874878,
        0.0,
        0.5117289423942566,
        0.3183937072753906,
        0.531291127204895,
        1.0
      ],
      "name": "Cylinder_5"
    },
    {
      "mesh": 6,
      "name": "Object_13"
    },
    {
      "children": [
        15
      ],
      "matrix": [
        -0.43642318248748274,
        0.0,
        6.589806868155944e-08,
        0.0,
        0.0,
        0.4364231824874878,
        0.0,
        0.0,
        -6.589806868155944e-08,
        0.0,
        -0.43642318248748274,
        0.0,
        0.5114151835441589,
        0.25839853286743164,
        0.5312910676002502,
        1.0
      ],
      "name": "Cylinder.001_6"
    },
    {
      "mesh": 7,
      "name": "Object_15"
    },
    {
      "children": [
        17
      ],
      "matrix": [
        0.13486223328849462,
        0.0,
        0.41506315696607887,
        0.0,
        -0.41506315696607887,
        0.0,
        0.13486223328849462,
        0.0,
        0.0,
        -0.4364231824874878,
        0.0,
        0.0,
        0.9378268122673035,
        0.057744622230529785,
        0.3924078047275543,
        1.0
      ],
      "name": "Cylinder.002_7"
    },
    {
      "mesh": 8,
      "name": "Object_17"
    },
    {
      "children": [
        19
      ],
      "matrix": [
        -0.43642318248748274,
        0.0,
        6.589806868155944e-08,
        0.0,
        0.0,
        0.4364231824874878,
        0.0,
        0.0,
        -6.589806868155944e-08,
        0.0,
        -0.43642318248748274,
        0.0,
        0.9165980815887451,
        0.609519898891449,
        0.5312910079956055,
        1.0
      ],
      "name": "Cylinder.003_8"
    },
    {
      "mesh": 9,
      "name": "Object_19"
    },
    {
      "children": [
        21
      ],
      "matrix": [
        0.43642318248748274,
        -0.0,
        -6.589806868155944e-08,
        -0.0,
        0.0,
        0.4364231824874878,
        0.0,
        0.0,
        -6.589806868155944e-08,
        0.0,
        -0.43642318248748274,
        0.0,
        0.08026434481143951,
        0.609519898891449,
        0.531291127204895,
        1.0
      ],
      "name": "Cylinder.004_9"
    },
    {
      "mesh": 10,
      "name": "Object_21"
    }
  ],
  "scene": 0,
  "scenes": [
    {
      "name": "Sketchfab_Scene",
      "nodes": [
        0
      ]
    }
  ]
}
