{
  "accessors": [
    {
      "bufferView": 2,
      "componentType": 5126,
      "count": 3365,
      "max": [
        0.19663499295711517,
        0.27862200140953064,
        0.27572301030158997
      ],
      "min": [
        -0.1985429972410202,
        -0.5,
        -0.11547300219535828
      ],
      "type": "VEC3"
    },
    {
      "bufferView": 2,
      "byteOffset": 40380,
      "componentType": 5126,
      "count": 3365,
      "max": [
        0.9999996423721313,
        0.9999608993530273,
        0.9999997615814209
      ],
      "min": [
        -0.9999995827674866,
        -0.9999999403953552,
        -0.9999995827674866
      ],
      "type": "VEC3"
    },
    {
      "bufferView": 1,
      "componentType": 5126,
      "count": 3365,
      "max": [
        0.9951000213623047,
        0.7371000051498413
      ],
      "min": [
        0.004899980034679174,
        0.004899980034679174
      ],
      "type": "VEC2"
    },
    {
      "bufferView": 0,
      "componentType": 5125,
      "count": 18435,
      "type": "SCALAR"
    },
    {
      "bufferView": 2,
      "byteOffset": 80760,
      "componentType": 5126,
      "count": 3999,
      "max": [
        0.5,
        0.5,
        0.5
      ],
      "min": [
        -0.5,
        -0.055153701454401016,
        -0.5
      ],
      "type": "VEC3"
    },
    {
      "bufferView": 2,
      "byteOffset": 128748,
      "componentType": 5126,
      "count": 3999,
      "max": [
        0.9988008737564087,
        0.9999421834945679,
        0.9995495080947876
      ],
      "min": [
        -0.9995960593223572,
        -0.8953614830970764,
        -0.9996996521949768
      ],
      "type": "VEC3"
    },
    {
      "bufferView": 1,
      "byteOffset": 26920,
      "componentType": 5126,
      "count": 3999,
      "max": [
        0.558899998664856,
        0.9753000140190125
      ],
      "min": [
        0.430400013923645,
        0.024700000882148743
      ],
      "type": "VEC2"
    },
    {
      "bufferView": 0,
      "byteOffset": 73740,
      "componentType": 5125,
      "count": 13824,
      "type": "SCALAR"
    }
  ],
  "asset": {
    "extras": {
      "author": "₵ⱤɎ₱₮Ø J₳₵₭ (https://sketchfab.com/oxyplik)",
      "license": "CC-BY-4.0 (http://creativecommons.org/licenses/by/4.0/)",
      "source": "https://sketchfab.com/3d-models/free-3d-model-plant-10df2f62b6b842f5987a71a142f88988",
      "title": "Free 3D Model Plant"
    },
    "generator": "Sketchfab-15.65.0",
    "version": "2.0"
  },
  "bufferViews": [
    {
      "buffer": 0,
      "byteLength": 129036,
      "name": "floatBufferViews",
      "target": 34963
    },
    {
      "buffer": 0,
      "byteLength": 58912,
      "byteOffset": 129036,
      "byteStride": 8,
      "name": "floatBufferViews",
      "target": 34962
    },
    {
      "buffer": 0,
      "byteLength": 176736,
      "byteOffset": 187948,
      "byteStride": 12,
      "name": "floatBufferViews",
      "target": 34962
    }
  ],
  "buffers": [
    {
      "byteLength": 364684,
      "uri": "scene.bin"
    }
  ],
  "images": [
    {
      "uri": "textures/Material0-material_baseColor.png"
    },
    {
      "uri": "textures/Material1-material_baseColor.png"
    }
  ],
  "materials": [
    {
      "doubleSided": true,
      "emissiveFactor": [
        1.0,
        1.0,
        1.0
      ],
      "emissiveTexture": {
        "index": 0
      },
      "name": "Material0-material",
      "pbrMetallicRoughness": {
        "baseColorTexture": {
          "index": 0
        },
        "metallicFactor": 0.0,
        "roughnessFactor": 0.6
      }
    },
    {
      "doubleSided": true,
      "emissiveFactor": [
        1.0,
        1.0,
        1.0
      ],
      "emissiveTexture": {
        "index": 1
      },
      "name": "Material1-material",
      "pbrMetallicRoughness": {
        "baseColorTexture": {
          "index": 1
        },
        "metallicFactor": 0.0,
        "roughnessFactor": 0.4
      }
    }
  ],
  "meshes": [
    {
      "name": "Material0-material",
      "primitives": [
        {
          "attributes": {
            "NORMAL": 1,
            "POSITION": 0,
            "TEXCOORD_0": 2
          },
          "indices": 3,
          "material": 0,
          "mode": 4
        }
      ]
    },
    {
      "name": "Material1-material",
      "primitives": [
        {
          "attributes": {
            "NORMAL": 5,
            "POSITION": 4,
            "TEXCOORD_0": 6
          },
          "indices": 7,
          "material": 1,
          "mode": 4
        }
      ]
    }
  ],
  "nodes": [
    {
      "children": [
        1
      ],
      "matrix": [
        1.0,
        0.0,
        0.0,
        0.0,
        0.0,
        2.220446049250313e-16,
        -1.0,
        0.0,
        0.0,
        1.0,
        2.220446049250313e-16,
        0.0,
        0.0,
        0.0,
        0.0,
        1.0
      ],
      "name": "Sketchfab_model"
    },
    {
      "children": [
        2
      ],
      "name": "Collada visual scene group"
    },
    {
      "children": [
        3,
        4
      ],
      "matrix": [
        -0.44603,
        -1.29537,
        0.0,
        0.0,
        -4.62769e-07,
        0.0,
        2.58799,
        0.0,
        -1.40885,
        0.485108,
        -3.55252e-07,
        0.0,
        0.0,
        0.0,
        0.0,
        1.0
      ],
      "name": "prim0"
    },
    {
      "mesh": 0,
      "name": "Material0-material"
    },
    {
      "mesh": 1,
      "name": "Material1-material"
    }
  ],
  "samplers": [
    {
      "magFilter": 9729,
      "minFilter": 9987,
      "wrapS": 10497,
      "wrapT": 10497
    }
  ],
  "scene": 0,
  "scenes": [
    {
      "name": "Sketchfab_Scene",
      "nodes": [
        0
      ]
    }
  ],
  "textures": [
    {
      "sampler": 0,
      "source": 0
    },
    {
      "sampler": 0,
      "source": 1
    }
  ]
}
