{
  "accessors": [
    {
      "bufferView": 2,
      "componentType": 5126,
      "count": 7566,
      "max": [
        1.6218695640563965,
        13.172842979431152,
        1.3546979427337646
      ],
      "min": [
        -1.5370988845825195,
        9.212961196899414,
        -1.9939860105514526
      ],
      "type": "VEC3"
    },
    {
      "bufferView": 2,
      "byteOffset": 90792,
      "componentType": 5126,
      "count": 7566,
      "max": [
        1.0,
        0.9998520612716675,
        0.9999611973762512
      ],
      "min": [
        -1.0,
        -0.9939687848091125,
        -0.9996500015258789
      ],
      "type": "VEC3"
    },
    {
      "bufferView": 1,
      "componentType": 5126,
      "count": 7566,
      "max": [
        0.975394606590271,
        0.9891271591186523
      ],
      "min": [
        0.10860323905944824,
        0.059719718992710114
      ],
      "type": "VEC2"
    },
    {
      "bufferView": 0,
      "componentType": 5125,
      "count": 43776,
      "type": "SCALAR"
    },
    {
      "bufferView": 2,
      "byteOffset": 181584,
      "componentType": 5126,
      "count": 1650,
      "max": [
        0.8938297033309937,
        12.40354061126709,
        0.6455317139625549
      ],
      "min": [
        -0.8926763534545898,
        -0.26582634449005127,
        -1.3267645835876465
      ],
      "type": "VEC3"
    },
    {
      "bufferView": 2,
      "byteOffset": 201384,
      "componentType": 5126,
      "count": 1650,
      "max": [
        1.0,
        0.9487321972846985,
        0.9999920725822449
      ],
      "min": [
        -1.0,
        -1.0,
        -0.9999915957450867
      ],
      "type": "VEC3"
    },
    {
      "bufferView": 1,
      "byteOffset": 60528,
      "componentType": 5126,
      "count": 1650,
      "max": [
        0.6890387535095215,
        0.9869430065155029
      ],
      "min": [
        0.6287517547607422,
        0.41836076974868774
      ],
      "type": "VEC2"
    },
    {
      "bufferView": 0,
      "byteOffset": 175104,
      "componentType": 5125,
      "count": 9072,
      "type": "SCALAR"
    },
    {
      "bufferView": 2,
      "byteOffset": 221184,
      "componentType": 5126,
      "count": 684,
      "max": [
        0.9411705136299133,
        12.72707462310791,
        0.6236131191253662
      ],
      "min": [
        -0.8569167852401733,
        10.056907653808594,
        -1.340602159500122
      ],
      "type": "VEC3"
    },
    {
      "bufferView": 2,
      "byteOffset": 229392,
      "componentType": 5126,
      "count": 684,
      "max": [
        0.986952006816864,
        0.9992930293083191,
        0.996370792388916
      ],
      "min": [
        -0.9990570545196533,
        -0.9992091655731201,
        -0.9963028430938721
      ],
      "type": "VEC3"
    },
    {
      "bufferView": 1,
      "byteOffset": 73728,
      "componentType": 5126,
      "count": 684,
      "max": [
        0.26821082830429077,
        0.9891271591186523
      ],
      "min": [
        0.12648017704486847,
        0.5704238414764404
      ],
      "type": "VEC2"
    },
    {
      "bufferView": 0,
      "byteOffset": 211392,
      "componentType": 5125,
      "count": 4032,
      "type": "SCALAR"
    },
    {
      "bufferView": 2,
      "byteOffset": 237600,
      "componentType": 5126,
      "count": 1041,
      "max": [
        1.7325609922409058,
        9.155851364135742,
        1.5191168785095215
      ],
      "min": [
        -2.018202781677246,
        -0.2942022383213043,
        -2.23164701461792
      ],
      "type": "VEC3"
    },
    {
      "bufferView": 2,
      "byteOffset": 250092,
      "componentType": 5126,
      "count": 1041,
      "max": [
        0.9996697902679443,
        1.0,
        0.9996698498725891
      ],
      "min": [
        -0.9996698498725891,
        -1.0,
        -0.9996698498725891
      ],
      "type": "VEC3"
    },
    {
      "bufferView": 1,
      "byteOffset": 79200,
      "componentType": 5126,
      "count": 1041,
      "max": [
        1.0,
        1.0
      ],
      "min": [
        0.0,
        -7.450580596923828e-08
      ],
      "type": "VEC2"
    },
    {
      "bufferView": 0,
      "byteOffset": 227520,
      "componentType": 5125,
      "count": 3240,
      "type": "SCALAR"
    }
  ],
  "asset": {
    "extras": {
      "author": "Bart Wazowski (https://sketchfab.com/BartWazowski)",
      "license": "CC-BY-4.0 (http://creativecommons.org/licenses/by/4.0/)",
      "source": "https://sketchfab.com/3d-models/flower-vase-model-5a8af945feaa4be396186ae61a53d334",
      "title": "Flower Vase Model"
    },
    "generator": "Sketchfab-12.66.0",
    "version": "2.0"
  },
  "bufferViews": [
    {
      "buffer": 0,
      "byteLength": 240480,
      "name": "floatBufferViews",
      "target": 34963
    },
    {
      "buffer": 0,
      "byteLength": 87528,
      "byteOffset": 240480,
      "byteStride": 8,
      "name": "floatBufferViews",
      "target": 34962
    },
    {
      "buffer": 0,
      "byteLength": 262584,
      "byteOffset": 328008,
      "byteStride": 12,
      "name": "floatBufferViews",
      "target": 34962
    }
  ],
  "buffers": [
    {
      "byteLength": 590592,
      "uri": "scene.bin"
    }
  ],
  "images": [
    {
      "uri": "textures/StingrayPBS2_metallicRoughness.png"
    }
  ],
  "materials": [
    {
      "doubleSided": true,
      "name": "StingrayPBS2",
      "pbrMetallicRoughness": {
        "baseColorFactor": [
          0.732532985489547,
          0.7056294485276444,
          0.005073071165349312,
          1.0
        ],
        "metallicFactor": 0.0,
        "metallicRoughnessTexture": {
          "index": 0
        }
      }
    },
    {
      "doubleSided": true,
      "name": "StingrayPBS1",
      "pbrMetallicRoughness": {
        "baseColorFactor": [
          0.010852210262579622,
          0.14107431122548625,
          0.0014093003396625956,
          1.0
        ],
        "metallicFactor": 0.0,
        "metallicRoughnessTexture": {
          "index": 0
        }
      }
    },
    {
      "doubleSided": true,
      "name": "StingrayPBS3",
      "pbrMetallicRoughness": {
        "baseColorFactor": [
          0.828292110066717,
          0.8113535049754885,
          0.16899512209977224,
          1.0
        ],
        "metallicFactor": 0.0,
        "metallicRoughnessTexture": {
          "index": 0
        },
        "roughnessFactor": 0.9102515243902439
      }
    },
    {
      "alphaMode": "BLEND",
      "doubleSided": true,
      "name": "StingrayPBS4",
      "pbrMetallicRoughness": {
        "baseColorFactor": [
          0.22390185496195245,
          0.5612388103215987,
          0.23515507237213948,
          0.2543826219512195
        ],
        "metallicFactor": 0.0,
        "roughnessFactor": 0.6
      }
    }
  ],
  "meshes": [
    {
      "name": "pCube14_StingrayPBS2_0",
      "primitives": [
        {
          "attributes": {
            "NORMAL": 1,
            "POSITION": 0,
            "TEXCOORD_0": 2
          },
          "indices": 3,
          "material": 0,
          "mode": 4
        }
      ]
    },
    {
      "name": "pCube14_StingrayPBS1_0",
      "primitives": [
        {
          "attributes": {
            "NORMAL": 5,
            "POSITION": 4,
            "TEXCOORD_0": 6
          },
          "indices": 7,
          "material": 1,
          "mode": 4
        }
      ]
    },
    {
      "name": "pCube14_StingrayPBS3_0",
      "primitives": [
        {
          "attributes": {
            "NORMAL": 9,
            "POSITION": 8,
            "TEXCOORD_0": 10
          },
          "indices": 11,
          "material": 2,
          "mode": 4
        }
      ]
    },
    {
      "name": "pCube14_StingrayPBS4_0",
      "primitives": [
        {
          "attributes": {
            "NORMAL": 13,
            "POSITION": 12,
            "TEXCOORD_0": 14
          },
          "indices": 15,
          "material": 3,
          "mode": 4
        }
      ]
    }
  ],
  "nodes": [
    {
      "children": [
        1
      ],
      "matrix": [
        1.0,
        0.0,
        0.0,
        0.0,
        0.0,
        2.220446049250313e-16,
        -1.0,
        0.0,
        0.0,
        1.0,
        2.220446049250313e-16,
        0.0,
        0.0,
        0.0,
        0.0,
        1.0
      ],
      "name": "Sketchfab_model"
    },
    {
      "children": [
        2
      ],
      "matrix": [
        1.0,
        0.0,
        0.0,
        0.0,
        0.0,
        0.0,
        1.0,
        0.0,
        0.0,
        -1.0,
        0.0,
        0.0,
        0.0,
        0.0,
        0.0,
        1.0
      ],
      "name": "d4dede40434f498ab470b79b5911a0dd.fbx"
    },
    {
      "children": [
        3
      ],
      "name": "RootNode"
    },
    {
      "children": [
        4,
        5,
        6,
        7
      ],
      "name": "pCube14"
    },
    {
      "mesh": 0,
      "name": "pCube14_StingrayPBS2_0"
    },
    {
      "mesh": 1,
      "name": "pCube14_StingrayPBS1_0"
    },
    {
      "mesh": 2,
      "name": "pCube14_StingrayPBS3_0"
    },
    {
      "mesh": 3,
      "name": "pCube14_StingrayPBS4_0"
    }
  ],
  "samplers": [
    {
      "magFilter": 9729,
      "minFilter": 9987,
      "wrapS": 10497,
      "wrapT": 10497
    }
  ],
  "scene": 0,
  "scenes": [
    {
      "name": "Sketchfab_Scene",
      "nodes": [
        0
      ]
    }
  ],
  "textures": [
    {
      "sampler": 0,
      "source": 0
    }
  ]
}
