{
  "accessors": [
    {
      "bufferView": 2,
      "componentType": 5126,
      "count": 780,
      "max": [
        61.92772674560547,
        234.46937561035156,
        65.98387908935547
      ],
      "min": [
        -56.916015625,
        184.5790252685547,
        -68.70306396484375
      ],
      "type": "VEC3"
    },
    {
      "bufferView": 2,
      "byteOffset": 9360,
      "componentType": 5126,
      "count": 780,
      "max": [
        1.0,
        1.0,
        1.0
      ],
      "min": [
        -1.0,
        -1.0,
        -1.0
      ],
      "type": "VEC3"
    },
    {
      "bufferView": 1,
      "componentType": 5126,
      "count": 780,
      "max": [
        0.9990000128746033,
        0.93572998046875
      ],
      "min": [
        0.0018990000244230032,
        0.0010000000474974513
      ],
      "type": "VEC2"
    },
    {
      "bufferView": 0,
      "componentType": 5125,
      "count": 3204,
      "type": "SCALAR"
    },
    {
      "bufferView": 2,
      "byteOffset": 18720,
      "componentType": 5126,
      "count": 3840,
      "max": [
        68.32929992675781,
        186.28106689453125,
        70.88219451904297
      ],
      "min": [
        -67.28211975097656,
        7.2713704109191895,
        -64.9332046508789
      ],
      "type": "VEC3"
    },
    {
      "bufferView": 2,
      "byteOffset": 64800,
      "componentType": 5126,
      "count": 3840,
      "max": [
        0.9998828172683716,
        0.3372011184692383,
        0.9998828172683716
      ],
      "min": [
        -0.999879777431488,
        -0.38000696897506714,
        -0.999914288520813
      ],
      "type": "VEC3"
    },
    {
      "bufferView": 1,
      "byteOffset": 6240,
      "componentType": 5126,
      "count": 3840,
      "max": [
        0.9586210250854492,
        0.9964500069618225
      ],
      "min": [
        0.020225999876856804,
        0.019605999812483788
      ],
      "type": "VEC2"
    },
    {
      "bufferView": 0,
      "byteOffset": 12816,
      "componentType": 5125,
      "count": 20520,
      "type": "SCALAR"
    },
    {
      "bufferView": 2,
      "byteOffset": 110880,
      "componentType": 5126,
      "count": 6306,
      "max": [
        60.01036834716797,
        69.38471984863281,
        52.481685638427734
      ],
      "min": [
        -65.79658508300781,
        1.5271215438842773,
        -67.75077819824219
      ],
      "type": "VEC3"
    },
    {
      "bufferView": 2,
      "byteOffset": 186552,
      "componentType": 5126,
      "count": 6306,
      "max": [
        0.9997408986091614,
        0.9999980926513672,
        0.9999548196792603
      ],
      "min": [
        -0.9999241232872009,
        -0.9999929070472717,
        -0.9998531937599182
      ],
      "type": "VEC3"
    },
    {
      "bufferView": 1,
      "byteOffset": 36960,
      "componentType": 5126,
      "count": 6306,
      "max": [
        0.9989999532699585,
        0.9635595679283142
      ],
      "min": [
        0.0010000000474974513,
        0.0010000000474974513
      ],
      "type": "VEC2"
    },
    {
      "bufferView": 0,
      "byteOffset": 94896,
      "componentType": 5125,
      "count": 33834,
      "type": "SCALAR"
    },
    {
      "bufferView": 2,
      "byteOffset": 262224,
      "componentType": 5126,
      "count": 1093,
      "max": [
        55.914466857910156,
        83.31206512451172,
        57.78003692626953
      ],
      "min": [
        -55.78417205810547,
        0.036685943603515625,
        -70.8822021484375
      ],
      "type": "VEC3"
    },
    {
      "bufferView": 2,
      "byteOffset": 275340,
      "componentType": 5126,
      "count": 1093,
      "max": [
        1.0,
        1.0,
        1.0
      ],
      "min": [
        -1.0,
        -1.0,
        -1.0
      ],
      "type": "VEC3"
    },
    {
      "bufferView": 1,
      "byteOffset": 87408,
      "componentType": 5126,
      "count": 1093,
      "max": [
        0.9990000128746033,
        0.9948613047599792
      ],
      "min": [
        0.0010000000474974513,
        0.0010000000474974513
      ],
      "type": "VEC2"
    },
    {
      "bufferView": 0,
      "byteOffset": 230232,
      "componentType": 5125,
      "count": 3750,
      "type": "SCALAR"
    },
    {
      "bufferView": 2,
      "byteOffset": 288456,
      "componentType": 5126,
      "count": 28,
      "max": [
        50.245361328125,
        33.02271270751953,
        51.116390228271484
      ],
      "min": [
        -50.305992126464844,
        7.694602966308594,
        -68.76744842529297
      ],
      "type": "VEC3"
    },
    {
      "bufferView": 2,
      "byteOffset": 288792,
      "componentType": 5126,
      "count": 28,
      "max": [
        1.0,
        0.9999943971633911,
        0.0
      ],
      "min": [
        -1.0,
        0.0,
        0.0
      ],
      "type": "VEC3"
    },
    {
      "bufferView": 1,
      "byteOffset": 96152,
      "componentType": 5126,
      "count": 28,
      "max": [
        0.8519711494445801,
        0.9990000128746033
      ],
      "min": [
        0.0010000000474974513,
        0.0010000000474974513
      ],
      "type": "VEC2"
    },
    {
      "bufferView": 0,
      "byteOffset": 245232,
      "componentType": 5125,
      "count": 66,
      "type": "SCALAR"
    },
    {
      "bufferView": 2,
      "byteOffset": 289128,
      "componentType": 5126,
      "count": 135,
      "max": [
        63.280784606933594,
        186.7000274658203,
        65.9427490234375
      ],
      "min": [
        -62.710655212402344,
        161.8204803466797,
        -65.72711181640625
      ],
      "type": "VEC3"
    },
    {
      "bufferView": 2,
      "byteOffset": 290748,
      "componentType": 5126,
      "count": 135,
      "max": [
        0.9942741990089417,
        0.10690005123615265,
        0.9982129335403442
      ],
      "min": [
        -1.0,
        -0.0871567353606224,
        -2.539832166803535e-07
      ],
      "type": "VEC3"
    },
    {
      "bufferView": 1,
      "byteOffset": 96376,
      "componentType": 5126,
      "count": 135,
      "max": [
        0.9951199889183044,
        0.3839130103588104
      ],
      "min": [
        0.007639999967068434,
        0.004031000193208456
      ],
      "type": "VEC2"
    },
    {
      "bufferView": 0,
      "byteOffset": 245496,
      "componentType": 5125,
      "count": 351,
      "type": "SCALAR"
    },
    {
      "bufferView": 2,
      "byteOffset": 292368,
      "componentType": 5126,
      "count": 524,
      "max": [
        62.129859924316406,
        188.4934539794922,
        66.04142761230469
      ],
      "min": [
        -61.672882080078125,
        180.6259307861328,
        -70.17224884033203
      ],
      "type": "VEC3"
    },
    {
      "bufferView": 2,
      "byteOffset": 298656,
      "componentType": 5126,
      "count": 524,
      "max": [
        0.9999996423721313,
        0.9999963641166687,
        0.9999997019767761
      ],
      "min": [
        -0.9999997019767761,
        -0.9999963641166687,
        -0.9945517778396606
      ],
      "type": "VEC3"
    },
    {
      "bufferView": 1,
      "byteOffset": 97456,
      "componentType": 5126,
      "count": 524,
      "max": [
        0.8293970823287964,
        0.8999999761581421
      ],
      "min": [
        0.17060279846191406,
        0.10000000149011612
      ],
      "type": "VEC2"
    },
    {
      "bufferView": 0,
      "byteOffset": 246900,
      "componentType": 5125,
      "count": 2070,
      "type": "SCALAR"
    },
    {
      "bufferView": 2,
      "byteOffset": 304944,
      "componentType": 5126,
      "count": 336,
      "max": [
        -57.37628173828125,
        187.0074920654297,
        60.80133056640625
      ],
      "min": [
        -61.47074890136719,
        185.29013061523438,
        -67.60272216796875
      ],
      "type": "VEC3"
    },
    {
      "bufferView": 2,
      "byteOffset": 308976,
      "componentType": 5126,
      "count": 336,
      "max": [
        1.0,
        1.0,
        0.999910831451416
      ],
      "min": [
        -1.0,
        -1.0,
        -0.999910831451416
      ],
      "type": "VEC3"
    },
    {
      "bufferView": 1,
      "byteOffset": 101648,
      "componentType": 5126,
      "count": 336,
      "max": [
        0.9990000128746033,
        0.93572998046875
      ],
      "min": [
        0.0018990000244230032,
        0.0010000000474974513
      ],
      "type": "VEC2"
    },
    {
      "bufferView": 0,
      "byteOffset": 255180,
      "componentType": 5125,
      "count": 1410,
      "type": "SCALAR"
    }
  ],
  "asset": {
    "extras": {
      "author": "ryankentpaule (https://sketchfab.com/ryankentpaule)",
      "license": "CC-BY-4.0 (http://creativecommons.org/licenses/by/4.0/)",
      "source": "https://sketchfab.com/3d-models/victorian-era-bed-818fb24ec28848a4b634a85bdb535b93",
      "title": "Victorian Era Bed"
    },
    "generator": "Sketchfab-14.37.0",
    "version": "2.0"
  },
  "bufferViews": [
    {
      "buffer": 0,
      "byteLength": 260820,
      "name": "floatBufferViews",
      "target": 34963
    },
    {
      "buffer": 0,
      "byteLength": 104336,
      "byteOffset": 260820,
      "byteStride": 8,
      "name": "floatBufferViews",
      "target": 34962
    },
    {
      "buffer": 0,
      "byteLength": 313008,
      "byteOffset": 365156,
      "byteStride": 12,
      "name": "floatBufferViews",
      "target": 34962
    }
  ],
  "buffers": [
    {
      "byteLength": 678164,
      "uri": "scene.bin"
    }
  ],
  "materials": [
    {
      "doubleSided": true,
      "name": "material",
      "pbrMetallicRoughness": {
        "metallicFactor": 0.0
      }
    },
    {
      "doubleSided": true,
      "name": "curtains",
      "pbrMetallicRoughness": {
        "baseColorFactor": [
          0.588235,
          0.588235,
          0.588235,
          1.0
        ],
        "metallicFactor": 0.0
      }
    },
    {
      "doubleSided": true,
      "name": "Bedding",
      "pbrMetallicRoughness": {
        "baseColorFactor": [
          0.588235,
          0.588235,
          0.588235,
          1.0
        ],
        "metallicFactor": 0.0
      }
    },
    {
      "doubleSided": true,
      "name": "Bed_frame",
      "pbrMetallicRoughness": {
        "baseColorFactor": [
          0.588235,
          0.588235,
          0.588235,
          1.0
        ],
        "metallicFactor": 0.0
      }
    },
    {
      "doubleSided": true,
      "name": "mattress",
      "pbrMetallicRoughness": {
        "baseColorFactor": [
          0.588235,
          0.588235,
          0.588235,
          1.0
        ],
        "metallicFactor": 0.0
      }
    },
    {
      "doubleSided": true,
      "name": "semiround",
      "pbrMetallicRoughness": {
        "baseColorFactor": [
          0.588235,
          0.588235,
          0.588235,
          1.0
        ],
        "metallicFactor": 0.0
      }
    },
    {
      "doubleSided": true,
      "name": "fabric_strip",
      "pbrMetallicRoughness": {
        "baseColorFactor": [
          0.588235,
          0.588235,
          0.588235,
          1.0
        ],
        "metallicFactor": 0.0
      }
    },
    {
      "doubleSided": true,
      "name": "curtains_0",
      "pbrMetallicRoughness": {
        "baseColorFactor": [
          0.588235,
          0.588235,
          0.588235,
          1.0
        ],
        "metallicFactor": 0.0
      }
    }
  ],
  "meshes": [
    {
      "name": "Sphere009_Rod_0",
      "primitives": [
        {
          "attributes": {
            "NORMAL": 1,
            "POSITION": 0,
            "TEXCOORD_0": 2
          },
          "indices": 3,
          "material": 0,
          "mode": 4
        }
      ]
    },
    {
      "name": "Sphere009_curtains_0",
      "primitives": [
        {
          "attributes": {
            "NORMAL": 5,
            "POSITION": 4,
            "TEXCOORD_0": 6
          },
          "indices": 7,
          "material": 1,
          "mode": 4
        }
      ]
    },
    {
      "name": "Sphere009_Bedding_0",
      "primitives": [
        {
          "attributes": {
            "NORMAL": 9,
            "POSITION": 8,
            "TEXCOORD_0": 10
          },
          "indices": 11,
          "material": 2,
          "mode": 4
        }
      ]
    },
    {
      "name": "Sphere009_Bed_frame_0",
      "primitives": [
        {
          "attributes": {
            "NORMAL": 13,
            "POSITION": 12,
            "TEXCOORD_0": 14
          },
          "indices": 15,
          "material": 3,
          "mode": 4
        }
      ]
    },
    {
      "name": "Sphere009_mattress_0",
      "primitives": [
        {
          "attributes": {
            "NORMAL": 17,
            "POSITION": 16,
            "TEXCOORD_0": 18
          },
          "indices": 19,
          "material": 4,
          "mode": 4
        }
      ]
    },
    {
      "name": "Sphere009_semiround_0",
      "primitives": [
        {
          "attributes": {
            "NORMAL": 21,
            "POSITION": 20,
            "TEXCOORD_0": 22
          },
          "indices": 23,
          "material": 5,
          "mode": 4
        }
      ]
    },
    {
      "name": "Sphere009_fabric strip_0",
      "primitives": [
        {
          "attributes": {
            "NORMAL": 25,
            "POSITION": 24,
            "TEXCOORD_0": 26
          },
          "indices": 27,
          "material": 6,
          "mode": 4
        }
      ]
    },
    {
      "name": "Sphere009_curtains_0",
      "primitives": [
        {
          "attributes": {
            "NORMAL": 29,
            "POSITION": 28,
            "TEXCOORD_0": 30
          },
          "indices": 31,
          "material": 7,
          "mode": 4
        }
      ]
    }
  ],
  "nodes": [
    {
      "children": [
        1
      ],
      "matrix": [
        1.0,
        0.0,
        0.0,
        0.0,
        0.0,
        2.220446049250313e-16,
        -1.0,
        0.0,
        0.0,
        1.0,
        2.220446049250313e-16,
        0.0,
        0.0,
        0.0,
        0.0,
        1.0
      ],
      "name": "Sketchfab_model"
    },
    {
      "children": [
        2
      ],
      "matrix": [
        0.009999999776482582,
        0.0,
        0.0,
        0.0,
        0.0,
        0.0,
        0.009999999776482582,
        0.0,
        0.0,
        -0.009999999776482582,
        0.0,
        0.0,
        0.0,
        0.0,
        0.0,
        1.0
      ],
      "name": "bbcfea0748564e899f4e06b7e7b0a717.fbx"
    },
    {
      "children": [
        3
      ],
      "name": "RootNode"
    },
    {
      "children": [
        4,
        5,
        6,
        7,
        8,
        9,
        10,
        11
      ],
      "name": "Sphere009"
    },
    {
      "mesh": 0,
      "name": "Sphere009_Rod_0"
    },
    {
      "mesh": 1,
      "name": "Sphere009_curtains_0"
    },
    {
      "mesh": 2,
      "name": "Sphere009_Bedding_0"
    },
    {
      "mesh": 3,
      "name": "Sphere009_Bed_frame_0"
    },
    {
      "mesh": 4,
      "name": "Sphere009_mattress_0"
    },
    {
      "mesh": 5,
      "name": "Sphere009_semiround_0"
    },
    {
      "mesh": 6,
      "name": "Sphere009_fabric strip_0"
    },
    {
      "mesh": 7,
      "name": "Sphere009_curtains_0"
    }
  ],
  "scene": 0,
  "scenes": [
    {
      "name": "Sketchfab_Scene",
      "nodes": [
        0
      ]
    }
  ]
}
