{
  "accessors": [
    {
      "bufferView": 2,
      "componentType": 5126,
      "count": 3667,
      "max": [
        2.3601627349853516,
        1.4060112237930298,
        2.406999111175537
      ],
      "min": [
        -2.6744446754455566,
        -1.7874901294708252,
        -2.809169292449951
      ],
      "type": "VEC3"
    },
    {
      "bufferView": 2,
      "byteOffset": 44004,
      "componentType": 5126,
      "count": 3667,
      "max": [
        1.0,
        1.0,
        1.0
      ],
      "min": [
        -1.0,
        -1.0,
        -1.0
      ],
      "type": "VEC3"
    },
    {
      "bufferView": 3,
      "componentType": 5126,
      "count": 3667,
      "max": [
        1.0,
        1.0,
        1.0,
        1.0
      ],
      "min": [
        -1.0,
        -1.0,
        -1.0,
        -1.0
      ],
      "type": "VEC4"
    },
    {
      "bufferView": 1,
      "componentType": 5126,
      "count": 3667,
      "max": [
        0.9885467886924744,
        0.9956866502761841
      ],
      "min": [
        0.004837878048419952,
        0.006307140924036503
      ],
      "type": "VEC2"
    },
    {
      "bufferView": 0,
      "componentType": 5125,
      "count": 13878,
      "type": "SCALAR"
    },
    {
      "bufferView": 2,
      "byteOffset": 88008,
      "componentType": 5126,
      "count": 48,
      "max": [
        0.7102401852607727,
        -1.378589391708374,
        -0.5435765981674194
      ],
      "min": [
        -0.7102397680282593,
        -1.8066743612289429,
        -1.9015475511550903
      ],
      "type": "VEC3"
    },
    {
      "bufferView": 2,
      "byteOffset": 88584,
      "componentType": 5126,
      "count": 48,
      "max": [
        6.919204906807863e-07,
        -0.953462541103363,
        0.3015117645263672
      ],
      "min": [
        -2.317382978844762e-07,
        -0.9570492506027222,
        0.2899254858493805
      ],
      "type": "VEC3"
    },
    {
      "bufferView": 3,
      "byteOffset": 58672,
      "componentType": 5126,
      "count": 48,
      "max": [
        1.0,
        8.427933789789677e-05,
        0.0002656859578564763,
        1.0
      ],
      "min": [
        1.0,
        -8.391214214498177e-05,
        -0.0002650140959303826,
        1.0
      ],
      "type": "VEC4"
    },
    {
      "bufferView": 1,
      "byteOffset": 29336,
      "componentType": 5126,
      "count": 48,
      "max": [
        0.535247266292572,
        0.30318161845207214
      ],
      "min": [
        0.4694303870201111,
        0.2373647540807724
      ],
      "type": "VEC2"
    },
    {
      "bufferView": 0,
      "byteOffset": 55512,
      "componentType": 5125,
      "count": 72,
      "type": "SCALAR"
    }
  ],
  "asset": {
    "extras": {
      "author": "Ostuniverse Art (https://sketchfab.com/OstuniverseArt)",
      "license": "CC-BY-4.0 (http://creativecommons.org/licenses/by/4.0/)",
      "source": "https://sketchfab.com/3d-models/toscano-antique-eiffel-tower-phone-d9ff48194a5347fd924b525e9a3fd338",
      "title": "Toscano Antique Eiffel Tower Phone"
    },
    "generator": "Sketchfab-12.68.0",
    "version": "2.0"
  },
  "bufferViews": [
    {
      "buffer": 0,
      "byteLength": 55800,
      "name": "floatBufferViews",
      "target": 34963
    },
    {
      "buffer": 0,
      "byteLength": 29720,
      "byteOffset": 55800,
      "byteStride": 8,
      "name": "floatBufferViews",
      "target": 34962
    },
    {
      "buffer": 0,
      "byteLength": 89160,
      "byteOffset": 85520,
      "byteStride": 12,
      "name": "floatBufferViews",
      "target": 34962
    },
    {
      "buffer": 0,
      "byteLength": 59440,
      "byteOffset": 174680,
      "byteStride": 16,
      "name": "floatBufferViews",
      "target": 34962
    }
  ],
  "buffers": [
    {
      "byteLength": 234120,
      "uri": "scene.bin"
    }
  ],
  "images": [
    {
      "uri": "textures/PhoneMaterial_baseColor.png"
    },
    {
      "uri": "textures/PhoneMaterial_metallicRoughness.png"
    },
    {
      "uri": "textures/PhoneMaterial_normal.png"
    },
    {
      "uri": "textures/GlassButton_baseColor.png"
    }
  ],
  "materials": [
    {
      "alphaMode": "BLEND",
      "name": "PhoneMaterial",
      "normalTexture": {
        "index": 2
      },
      "occlusionTexture": {
        "index": 1
      },
      "pbrMetallicRoughness": {
        "baseColorTexture": {
          "index": 0
        },
        "metallicRoughnessTexture": {
          "index": 1
        },
        "roughnessFactor": 0.43340234329873717
      }
    },
    {
      "alphaMode": "BLEND",
      "doubleSided": true,
      "name": "GlassButton",
      "normalTexture": {
        "index": 2
      },
      "pbrMetallicRoughness": {
        "baseColorFactor": [
          0.006072930432828698,
          0.006072930432828698,
          0.006072930432828698,
          1.0
        ],
        "baseColorTexture": {
          "index": 3
        },
        "metallicFactor": 0.0,
        "roughnessFactor": 0.12939368513215257
      }
    }
  ],
  "meshes": [
    {
      "name": "LowPolyPhone_PhoneMaterial_0",
      "primitives": [
        {
          "attributes": {
            "NORMAL": 1,
            "POSITION": 0,
            "TANGENT": 2,
            "TEXCOORD_0": 3
          },
          "indices": 4,
          "material": 0,
          "mode": 4
        }
      ]
    },
    {
      "name": "LowPolyPhone_GlassButton_0",
      "primitives": [
        {
          "attributes": {
            "NORMAL": 6,
            "POSITION": 5,
            "TANGENT": 7,
            "TEXCOORD_0": 8
          },
          "indices": 9,
          "material": 1,
          "mode": 4
        }
      ]
    }
  ],
  "nodes": [
    {
      "children": [
        1
      ],
      "matrix": [
        1.0,
        0.0,
        0.0,
        0.0,
        0.0,
        2.220446049250313e-16,
        -1.0,
        0.0,
        0.0,
        1.0,
        2.220446049250313e-16,
        0.0,
        0.0,
        0.0,
        0.0,
        1.0
      ],
      "name": "Sketchfab_model"
    },
    {
      "children": [
        2
      ],
      "matrix": [
        1.0,
        0.0,
        0.0,
        0.0,
        0.0,
        0.0,
        1.0,
        0.0,
        0.0,
        -1.0,
        0.0,
        0.0,
        0.0,
        0.0,
        0.0,
        1.0
      ],
      "name": "f988304da5d34b03a17f5dfb6aee763c.fbx"
    },
    {
      "children": [
        3
      ],
      "name": "RootNode"
    },
    {
      "children": [
        4,
        5
      ],
      "matrix": [
        100.0,
        0.0,
        0.0,
        0.0,
        0.0,
        -1.629206793918314e-05,
        -99.99999999999868,
        0.0,
        0.0,
        99.99999999999868,
        -1.629206793918314e-05,
        0.0,
        0.0,
        671.1566772460938,
        0.0,
        1.0
      ],
      "name": "LowPolyPhone"
    },
    {
      "mesh": 0,
      "name": "LowPolyPhone_PhoneMaterial_0"
    },
    {
      "mesh": 1,
      "name": "LowPolyPhone_GlassButton_0"
    }
  ],
  "samplers": [
    {
      "magFilter": 9729,
      "minFilter": 9987,
      "wrapS": 10497,
      "wrapT": 10497
    }
  ],
  "scene": 0,
  "scenes": [
    {
      "name": "Sketchfab_Scene",
      "nodes": [
        0
      ]
    }
  ],
  "textures": [
    {
      "sampler": 0,
      "source": 0
    },
    {
      "sampler": 0,
      "source": 1
    },
    {
      "sampler": 0,
      "source": 2
    },
    {
      "sampler": 0,
      "source": 3
    }
  ]
}
